<?xml version="1.0" standalone="no"?>
<svg xmlns:xlink="http://www.w3.org/1999/xlink" id="wave" style="transform:rotate(180deg); transition: 0.3s" viewBox="0 0 1440 100" version="1.1" xmlns="http://www.w3.org/2000/svg"><defs><linearGradient id="sw-gradient-0" x1="0" x2="0" y1="1" y2="0"><stop stop-color="rgba(255, 192, 203, 1)" offset="0%"/><stop stop-color="rgba(253, 219, 229, 1)" offset="100%"/></linearGradient></defs><path style="transform:translate(0, 0px); opacity:1" fill="url(#sw-gradient-0)" d="M0,50L30,53.3C60,57,120,63,180,61.7C240,60,300,50,360,43.3C420,37,480,33,540,35C600,37,660,43,720,41.7C780,40,840,30,900,31.7C960,33,1020,47,1080,53.3C1140,60,1200,60,1260,60C1320,60,1380,60,1440,63.3C1500,67,1560,73,1620,65C1680,57,1740,33,1800,25C1860,17,1920,23,1980,30C2040,37,2100,43,2160,48.3C2220,53,2280,57,2340,56.7C2400,57,2460,53,2520,58.3C2580,63,2640,77,2700,81.7C2760,87,2820,83,2880,75C2940,67,3000,53,3060,43.3C3120,33,3180,27,3240,21.7C3300,17,3360,13,3420,20C3480,27,3540,43,3600,48.3C3660,53,3720,47,3780,48.3C3840,50,3900,60,3960,66.7C4020,73,4080,77,4140,78.3C4200,80,4260,80,4290,80L4320,80L4320,100L4290,100C4260,100,4200,100,4140,100C4080,100,4020,100,3960,100C3900,100,3840,100,3780,100C3720,100,3660,100,3600,100C3540,100,3480,100,3420,100C3360,100,3300,100,3240,100C3180,100,3120,100,3060,100C3000,100,2940,100,2880,100C2820,100,2760,100,2700,100C2640,100,2580,100,2520,100C2460,100,2400,100,2340,100C2280,100,2220,100,2160,100C2100,100,2040,100,1980,100C1920,100,1860,100,1800,100C1740,100,1680,100,1620,100C1560,100,1500,100,1440,100C1380,100,1320,100,1260,100C1200,100,1140,100,1080,100C1020,100,960,100,900,100C840,100,780,100,720,100C660,100,600,100,540,100C480,100,420,100,360,100C300,100,240,100,180,100C120,100,60,100,30,100L0,100Z"/></svg>